<?xml version="1.0" standalone="no"?>
<!DOCTYPE svg PUBLIC "-//W3C//DTD SVG 20010904//EN"
 "http://www.w3.org/TR/2001/REC-SVG-20010904/DTD/svg10.dtd">
<svg version="1.0" xmlns="http://www.w3.org/2000/svg"
 width="700.000000pt" height="700.000000pt" viewBox="0 0 700.000000 700.000000"
 preserveAspectRatio="xMidYMid meet">
<metadata>
Created by potrace 1.11, written by Peter Selinger 2001-2013
</metadata>
<g transform="translate(0.000000,700.000000) scale(0.100000,-0.100000)"
fill="#000000" stroke="none">
<path d="M1895 6993 c-45 -12 -103 -62 -131 -114 -17 -30 -19 -63 -22 -294 -2
-176 0 -273 8 -301 15 -54 61 -109 113 -136 l42 -22 1585 0 1585 0 42 22 c50
26 96 80 112 131 7 25 11 130 11 292 0 226 -3 259 -19 295 -21 47 -58 86 -104
111 -30 17 -126 18 -1617 19 -872 1 -1594 0 -1605 -3z"/>
<path d="M2179 5683 c0 -5 -1 -225 -1 -490 -1 -265 -4 -486 -7 -491 -3 -4 -37
-25 -76 -47 -573 -314 -1055 -880 -1280 -1505 -29 -79 -83 -263 -91 -304 -3
-16 -7 -32 -9 -36 -2 -3 -11 -48 -20 -100 -22 -130 -23 -138 -29 -195 -3 -27
-8 -77 -12 -110 -12 -120 -6 -412 11 -545 2 -14 6 -47 9 -75 4 -27 9 -57 11
-65 3 -8 7 -32 9 -52 3 -20 14 -76 26 -125 12 -48 23 -95 25 -103 2 -8 20 -67
40 -130 92 -282 239 -569 413 -803 237 -321 378 -426 662 -491 57 -13 269 -15
1650 -13 l1585 2 85 24 c183 51 336 152 465 306 28 33 58 69 68 80 76 83 238
337 318 497 73 146 170 392 194 494 3 10 14 57 26 104 28 115 30 122 33 145
26 154 30 185 42 320 12 136 6 391 -11 525 -2 14 -6 47 -9 74 -19 149 -88 415
-151 578 -181 469 -464 866 -855 1199 -117 99 -236 183 -426 298 l-71 44 -1
481 c0 264 -1 489 -1 499 -1 16 -29 17 -436 17 l-435 0 0 -47 c-1 -53 -1
-1374 0 -1438 l0 -41 98 -49 c187 -95 348 -188 482 -277 74 -50 137 -93 140
-97 3 -3 37 -31 75 -62 188 -150 377 -366 486 -555 41 -70 119 -233 119 -246
0 -8 4 -18 9 -23 14 -15 73 -219 85 -295 3 -19 7 -44 10 -55 22 -114 31 -315
13 -316 -6 0 -52 0 -102 1 -511 8 -918 91 -1295 265 -241 111 -334 146 -504
190 -75 19 -150 37 -168 40 -18 3 -40 8 -48 10 -8 2 -33 6 -55 10 -22 3 -53 8
-70 10 -16 3 -42 7 -58 9 -165 27 -659 27 -794 2 -10 -2 -40 -7 -68 -10 -173
-23 -405 -78 -593 -142 -74 -24 -137 -43 -140 -40 -11 11 60 269 103 376 136
338 345 599 690 861 135 102 333 218 568 332 l137 66 1 43 c0 46 0 1445 -1
1464 0 13 -870 20 -871 7z"/>
</g>
</svg>
